<svg width="254" height="80" viewBox="0 0 254 80" fill="#fff" xmlns="http://www.w3.org/2000/svg">
<g clip-path="url(#clip0_43_1152)">
<path d="M36.4769 33.0459C35.5455 33.8935 18.9234 49.0964 18.9234 49.0964C18.6362 49.3569 18.3878 49.2753 17.6466 48.4588L0.496696 29.6126C0.011578 29.076 -0.14366 28.8583 0.190101 28.555L17.8484 12.3995C21.2791 9.26557 25.3347 7.92024 30.0384 13.0877L37.0474 20.7825C42.341 26.5953 39.3799 30.3825 36.4769 33.0459ZM28.715 14.3436C25.0087 10.2726 21.9894 11.0269 19.036 13.7253L2.82526 28.5705C2.43717 28.9166 2.62345 29.2121 2.8796 29.4959L18.1744 46.2852C18.6091 46.7596 18.807 46.7868 19.2106 46.4174L35.2971 31.6967C37.5325 29.6515 40.3423 27.0852 35.9957 22.3105L28.715 14.3436Z" fill="#fff"/>
<path d="M33.2132 31.5956L19.1991 44.4267C18.9818 44.625 18.811 44.5628 18.2211 43.9446L5.09575 29.5076C4.70765 29.0994 4.60287 28.9322 4.85901 28.6989L18.9662 15.8056C21.5898 13.4065 24.6906 12.3801 28.2805 16.3344L33.6517 22.2172C37.7034 26.6654 35.4253 29.5465 33.2132 31.5956ZM27.2753 17.287C24.4384 14.1764 22.1292 14.748 19.8705 16.8126L6.87322 28.7106C6.57827 28.9788 6.71798 29.2044 6.91591 29.4182L18.6131 42.2493C18.9468 42.6148 19.0982 42.6381 19.3893 42.3504C19.3893 42.3504 31.8549 30.9502 32.2934 30.5536C34.0049 28.9983 36.1744 27.0231 32.8251 23.372L27.2753 17.287Z" fill="#fff"/>
<path d="M30.5081 30.394C29.992 30.8761 19.428 40.5228 19.428 40.5228C19.265 40.6705 19.1253 40.6239 18.7023 40.1612L8.92234 29.4219C8.64679 29.1187 8.55753 28.9942 8.74769 28.8231L19.9015 18.6321C21.842 16.8436 24.1706 16.0815 26.8484 19.021L30.8341 23.4108C33.8496 26.7235 32.1614 28.8815 30.5081 30.394ZM26.111 19.7364C23.9959 17.4035 22.2767 17.8467 20.5923 19.3826C19.9015 20.0047 10.6649 28.446 10.2457 28.8309C10.0284 29.0292 10.1332 29.1964 10.2768 29.3558L18.9934 38.9247C19.2418 39.1969 19.3543 39.2125 19.5833 39.0025L29.8367 29.628C31.1097 28.4615 32.7125 26.9996 30.2248 24.2778L26.111 19.7364Z" fill="#fff"/>
<path d="M39.0617 44.528L23.0451 26.9416C22.7851 26.6577 22.8666 26.4089 23.6777 25.6624L42.4808 8.46867C43.0164 7.98265 43.2337 7.82712 43.5365 8.1615L59.6657 25.8684C62.7704 29.3017 64.1326 33.3649 58.9748 38.0813L51.2945 45.0801C45.4925 50.407 41.7124 47.4325 39.0617 44.528ZM57.7291 36.7515C61.7924 33.0461 61.0395 30.0288 58.3461 27.0738L43.5248 10.7977C43.1755 10.4089 42.8806 10.5994 42.6012 10.856L25.8394 26.1756C25.3659 26.615 25.3348 26.8249 25.7229 27.2138L40.4162 43.3421C42.4576 45.5856 45.0229 48.3967 49.7848 44.0458L57.7291 36.7515Z" fill="#fff"/>
<path d="M40.5055 41.2617L27.7139 27.2135C27.5159 26.9958 27.578 26.8053 28.199 26.2376L42.5856 13.0838C42.9737 12.6949 43.16 12.5938 43.3929 12.8505L56.266 26.9841C58.6566 29.6126 59.6812 32.7192 55.7382 36.3158L49.8624 41.701C45.4226 45.7603 42.5313 43.4857 40.5055 41.2617ZM54.7835 35.3282C57.8882 32.486 57.3177 30.1686 55.2569 27.9056L43.3812 14.8685C43.1135 14.5768 42.8884 14.7168 42.6749 14.9151L29.8678 26.6342C29.503 26.9686 29.4797 27.1202 29.7669 27.4118C29.7669 27.4118 41.1458 39.9047 41.5417 40.344C43.094 42.0587 45.0694 44.2089 48.7137 40.8767L54.7835 35.3282Z" fill="#fff"/>
<path d="M41.7007 38.5478L31.6102 27.4509C31.4628 27.2875 31.5093 27.1437 31.9712 26.7199L42.6903 16.9255C42.993 16.6455 43.1172 16.5561 43.288 16.7466L53.4599 27.9174C55.2452 29.8615 56.0058 32.1945 53.0718 34.8735L48.6747 38.8783C45.3682 41.8995 43.2104 40.2042 41.7007 38.5478ZM52.3384 34.1269C54.6669 32.0117 54.2284 30.2854 52.6915 28.6018L43.2608 18.2708C43.0668 18.053 42.896 18.1541 42.7369 18.3019L33.1859 27.0115C32.9142 27.2603 32.8987 27.3731 33.1122 27.6064L42.4652 37.8752C43.6295 39.1544 45.0888 40.7563 47.8054 38.264L52.3384 34.1269Z" fill="#fff"/>
<path d="M27.2948 46.8296L44.8483 30.7791C45.1355 30.5186 45.3838 30.6002 46.1251 31.4168L63.2866 50.2551C63.7718 50.7917 63.927 51.0095 63.5932 51.3127L45.9233 67.4722C42.4925 70.6061 38.4369 71.9436 33.7294 66.7801L26.7243 59.0969C21.4306 53.2646 24.3918 49.4853 27.2948 46.8296ZM35.0566 65.5358C38.7668 69.6029 41.7862 68.8486 44.759 66.1502L60.962 51.3205C61.3501 50.9706 61.1599 50.6712 60.9037 50.3951L45.6128 33.6019C45.1782 33.1237 44.9802 33.1003 44.5766 33.4697L28.4746 48.1711C26.2353 50.2163 23.4293 52.7864 27.776 57.5572L35.0566 65.5358Z" fill="#fff"/>
<path d="M30.5547 48.2761L44.5726 35.445C44.79 35.2467 44.9801 35.3089 45.5468 35.931L58.676 50.3446C59.0641 50.7335 59.165 50.9201 58.9127 51.1534L44.8055 64.0506C42.182 66.4457 39.0811 67.4722 35.4912 63.5179L30.12 57.6506C26.0683 53.2064 28.3348 50.3058 30.5547 48.2761ZM36.4809 62.5964C39.3179 65.707 41.627 65.1354 43.8857 63.0708L56.8985 51.1728C57.1896 50.9045 57.0499 50.6751 56.8558 50.4613L45.1548 37.6302C44.821 37.2647 44.6736 37.2414 44.3786 37.5291L31.4551 49.3026C29.7474 50.8579 27.5974 52.8331 30.9234 56.4841L36.4809 62.5964Z" fill="#fff"/>
<path d="M33.2636 49.4735L44.3437 39.3642C44.5067 39.2164 44.6464 39.2631 45.0694 39.7258L54.8494 50.4611C55.1249 50.7683 55.2142 50.8888 55.024 51.0638L43.8779 61.2354C41.9375 63.0201 39.6089 63.786 36.931 60.8465L32.9376 56.4606C29.9221 53.144 31.6103 50.986 33.2636 49.4735ZM37.6762 60.1311C39.7913 62.464 41.5106 62.0247 43.1949 60.4849C43.8702 59.8628 53.1029 51.4215 53.526 51.0405C53.7433 50.8383 53.6385 50.6517 53.491 50.5078L44.7783 40.9428C44.5299 40.6706 44.4174 40.6551 44.1845 40.865L33.935 50.2395C32.662 51.406 31.0592 52.8679 33.5469 55.5897L37.6762 60.1311Z" fill="#fff"/>
<path d="M24.71 35.3283C25.5561 36.2614 40.7267 52.9185 40.7267 52.9185C40.9867 53.2024 40.9091 53.4512 40.0941 54.1939L21.287 71.3876C20.7553 71.8736 20.538 72.0291 20.2353 71.6947C20.2353 71.6947 4.67272 54.6138 4.10998 53.9917C0.981939 50.5428 -0.360868 46.4913 4.79691 41.7788L12.4773 34.7567C18.2793 29.4532 22.0593 32.4199 24.71 35.3283ZM6.04269 43.0853C1.97934 46.8024 2.73224 49.8313 5.42562 52.8058L20.2469 69.078C20.5962 69.4668 20.8912 69.2801 21.1706 69.0196L37.9324 53.7001C38.4059 53.2646 38.433 53.0663 38.0644 52.6619L23.3711 36.5103C21.3297 34.2668 18.7683 31.4556 14.0025 35.8104L6.04269 43.0853Z" fill="#fff"/>
<path d="M23.2662 38.5984L36.0734 52.6388C36.2713 52.8604 36.2092 53.047 35.5882 53.6147L21.1861 66.7724C20.7786 67.1418 20.6117 67.2584 20.3788 67.0057C20.3788 67.0057 7.9598 53.3464 7.50573 52.8759C5.11507 50.2436 4.0905 47.1331 8.03354 43.5442L13.9093 38.1707C18.3491 34.0998 21.2404 36.3705 23.2662 38.5984ZM8.98825 44.5318C5.88349 47.3741 6.45399 49.6876 8.51477 51.9505L20.3905 64.9877C20.6582 65.2793 20.8833 65.1394 21.0968 64.945L33.9039 53.2259C34.2687 52.8915 34.292 52.7399 34.0048 52.4288L22.23 39.5005C20.6777 37.7858 18.71 35.6317 15.0658 38.9639L8.98825 44.5318Z" fill="#fff"/>
<path d="M22.071 41.3084C22.5522 41.8411 32.1809 52.4093 32.1809 52.4093C32.3283 52.5726 32.2818 52.7125 31.8199 53.1402L21.1047 62.9346C20.7981 63.2146 20.6739 63.3001 20.5031 63.1096L10.3312 51.9466C8.5498 50.0024 7.78526 47.6695 10.7192 44.9828L15.097 40.9818C18.4035 37.9606 20.5613 39.6559 22.071 41.3084ZM11.4333 45.7293C9.10478 47.8484 9.5472 49.5709 11.0802 51.2583C11.7011 51.9349 20.1267 61.1888 20.5109 61.6088C20.7088 61.8226 20.8757 61.7215 21.0348 61.5738L30.5858 52.8447C30.8575 52.5959 30.873 52.4831 30.6634 52.2498C30.6634 52.2498 21.6053 42.3077 21.3065 41.9849C20.1422 40.7057 18.6829 39.0999 15.9663 41.5961L11.4333 45.7293Z" fill="#fff"/>
<path d="M80.4481 0H79.0044V80H80.4481V0Z" fill="#fff"/>
<path d="M95.7933 46.6195V45.9002H96.7791C97.889 45.9002 98.673 45.5464 99.1387 44.8271C99.4207 44.3994 99.5617 43.4377 99.5617 41.942V24.8805C99.5617 23.228 99.3832 22.1977 99.0223 21.77C98.734 21.4711 98.3836 21.2396 97.9959 21.0918C97.6082 20.9439 97.1927 20.8834 96.7791 20.9146H95.7933V20.1797H106.466C110.381 20.1797 113.356 20.6294 115.392 21.5289C117.47 22.4581 119.198 24.029 120.321 26.012C121.592 28.2133 122.236 30.7212 122.184 33.2635C122.184 36.9444 121.075 40.0186 118.858 42.4864C116.374 45.2444 112.586 46.6221 107.494 46.6195H95.7933ZM103.276 44.7104C104.625 45.0382 106.006 45.2207 107.393 45.2548C108.788 45.2902 110.175 45.0249 111.458 44.4769C112.742 43.9288 113.893 43.1107 114.833 42.0781C116.807 39.9603 117.793 37.0882 117.791 33.4618C117.788 29.8354 116.802 26.9555 114.833 24.8222C112.864 22.7148 110.327 21.6611 107.223 21.6611C105.884 21.6865 104.553 21.8772 103.26 22.2288L103.276 44.7104Z" fill="#fff"/>
<path d="M141.402 20.1447C144.719 20.1447 147.596 21.3929 150.033 23.8891C152.471 26.3853 153.688 29.4959 153.685 33.2208C153.685 37.0701 152.459 40.2637 150.006 42.8014C148.855 43.9967 147.477 44.9491 145.953 45.6025C144.429 46.2558 142.79 46.5969 141.133 46.6056C139.475 46.6143 137.832 46.2905 136.302 45.6531C134.771 45.0158 133.383 44.0779 132.22 42.8947C129.824 40.4166 128.626 37.2101 128.626 33.2752C128.626 29.2574 130.009 25.9784 132.775 23.4381C135.116 21.2623 138.209 20.0817 141.402 20.1447ZM141.041 21.5095C139.994 21.476 138.954 21.6861 138.002 22.1232C137.05 22.5604 136.212 23.2128 135.554 24.0291C133.83 26.1209 132.968 29.1822 132.965 33.213C132.965 37.3449 133.859 40.5255 135.647 42.7547C136.29 43.5754 137.117 44.2329 138.061 44.6739C139.005 45.115 140.039 45.3273 141.08 45.2937C142.218 45.316 143.347 45.077 144.378 44.5951C145.41 44.1133 146.318 43.4013 147.033 42.5136C148.586 40.6577 149.368 37.7324 149.381 33.7379C149.381 29.4065 148.52 26.1767 146.797 24.0485C145.4 22.3532 143.481 21.5069 141.041 21.5095Z" fill="#fff"/>
<path d="M175.764 46.6275L165.879 24.3986V42.0511C165.879 43.6763 166.05 44.6873 166.388 45.0917C166.853 45.636 167.591 45.9082 168.6 45.9082H169.5V46.6275H160.597V45.9082H161.502C162.584 45.9082 163.353 45.5738 163.807 44.8934C164.081 44.4812 164.218 43.5338 164.218 42.0511V24.7874C164.218 23.6157 164.089 22.772 163.83 22.2562C163.619 21.8433 163.278 21.5113 162.86 21.3113C162.142 21.009 161.363 20.8759 160.586 20.9225V20.2148H167.843L177.126 40.8885L186.258 20.2148H193.5V20.9381H192.603C191.509 20.9381 190.733 21.275 190.275 21.949C190.015 22.3611 189.887 23.3254 189.887 24.7874V42.0511C189.887 43.6763 190.061 44.6873 190.415 45.0917C190.88 45.636 191.614 45.9082 192.623 45.9082H193.508V46.6275H182.641V45.9082H183.549C184.64 45.9082 185.412 45.5738 185.851 44.8934C186.127 44.4812 186.266 43.5338 186.266 42.0511V24.3986L176.397 46.6275H175.764Z" fill="#fff"/>
<path d="M219.518 20.8834V20.1758H228.572V20.8834H227.61C227.143 20.8666 226.681 20.9757 226.271 21.1994C225.862 21.4231 225.52 21.7531 225.281 22.1549C225.022 22.5463 224.893 23.46 224.893 24.8961V35.3787C224.893 37.9708 224.634 39.9772 224.117 41.3977C223.536 42.9133 222.483 44.2006 221.113 45.0681C219.623 46.0894 217.595 46.6001 215.031 46.6001C212.237 46.6001 210.117 46.1115 208.671 45.1342C207.249 44.1894 206.171 42.809 205.597 41.1994C205.214 40.0562 205.023 37.932 205.023 34.8266V24.7444C205.023 23.158 204.806 22.1212 204.374 21.6339C203.942 21.1465 203.24 20.9003 202.267 20.8951H201.305V20.1758H212.361V20.8834H211.383C210.324 20.8834 209.571 21.2178 209.117 21.8905C208.804 22.3441 208.647 23.2954 208.647 24.7444V35.9853C208.658 37.1385 208.749 38.2896 208.919 39.4302C209.025 40.4976 209.363 41.5287 209.909 42.4514C210.433 43.2162 211.145 43.8324 211.977 44.24C213.008 44.7388 214.144 44.9803 215.288 44.9437C216.851 44.9696 218.395 44.5906 219.77 43.8433C220.971 43.2391 221.929 42.2417 222.487 41.0166C222.973 39.8683 223.216 37.9242 223.216 35.1843V24.7444C223.216 23.1308 223.038 22.1238 222.689 21.7194C222.407 21.4276 222.064 21.2015 221.685 21.0571C221.306 20.9126 220.9 20.8533 220.496 20.8834H219.518Z" fill="#fff"/>
<path d="M252.223 20.1292V28.8699H251.524C251.381 27.4732 250.967 26.1179 250.305 24.8805C249.708 23.8747 248.843 23.056 247.806 22.5165C246.779 21.9443 245.624 21.642 244.449 21.6378C243.256 21.5907 242.092 22.0088 241.201 22.8042C240.807 23.1344 240.489 23.5456 240.268 24.0099C240.047 24.4741 239.928 24.9806 239.92 25.4949C239.92 26.2732 240.208 27.0239 240.727 27.6023C241.503 28.5355 243.359 29.7784 246.293 31.3311C247.999 32.1812 249.642 33.1559 251.206 34.2473C252.046 34.8884 252.736 35.7076 253.224 36.6463C253.688 37.5384 253.93 38.5294 253.93 39.5352C253.933 40.4738 253.733 41.4019 253.344 42.2556C252.954 43.1094 252.385 43.8686 251.675 44.481C250.175 45.8704 248.241 46.5638 245.873 46.5612C245.173 46.5652 244.473 46.5093 243.782 46.394C242.96 46.2155 242.15 45.9883 241.356 45.7136C240.604 45.4328 239.823 45.2359 239.027 45.1265C238.891 45.1197 238.755 45.1411 238.628 45.1892C238.5 45.2374 238.384 45.3113 238.286 45.4064C238.046 45.7491 237.911 46.1545 237.898 46.5729H237.199V37.8944H237.898C238.224 39.7089 238.664 41.0672 239.218 41.9692C239.844 42.9347 240.722 43.7104 241.756 44.2127C242.912 44.8129 244.198 45.12 245.501 45.107C247.071 45.107 248.313 44.6975 249.226 43.8784C249.654 43.5238 249.998 43.0795 250.235 42.5769C250.471 42.0743 250.595 41.5257 250.596 40.97C250.587 40.3084 250.408 39.6604 250.076 39.0881C249.661 38.3876 249.1 37.7854 248.431 37.3228C247.939 36.9496 246.599 36.1577 244.41 34.9471C242.793 34.0898 241.237 33.122 239.753 32.0504C238.888 31.4053 238.163 30.5903 237.623 29.6553C237.14 28.7753 236.893 27.7856 236.905 26.7819C236.901 25.8944 237.087 25.0164 237.451 24.2073C237.816 23.3983 238.349 22.6771 239.016 22.0927C240.426 20.7837 242.219 20.1356 244.395 20.1486C245.887 20.1771 247.357 20.5133 248.714 21.1362C249.18 21.3773 249.684 21.5352 250.204 21.6028C250.5 21.6139 250.788 21.5093 251.008 21.3112C251.282 20.9777 251.455 20.5732 251.508 20.1447L252.223 20.1292Z" fill="#fff"/>
<path d="M118.932 53.1829H122.219V53.8283H119.587V55.8891H122.219V56.5345H119.587V59.7617H118.932V53.1829Z" fill="#fff"/>
<path d="M126.003 53.1829H126.659V59.7617H126.003V53.1829Z" fill="#fff"/>
<path d="M130.896 59.7617V53.1829H131.04L135.402 58.2375V53.1829H136.05V59.7617H135.899L131.583 54.7809V59.7617H130.896Z" fill="#fff"/>
<path d="M140.393 53.1829H144.15V53.8283H141.045V55.8891H144.119V56.5345H141.045V59.1202H144.119V59.7617H140.389L140.393 53.1829Z" fill="#fff"/>
<path d="M153.324 53.1829H154.628C155.128 53.1638 155.628 53.1912 156.123 53.2645C156.494 53.3428 156.828 53.5458 157.07 53.84C157.321 54.144 157.452 54.5301 157.438 54.9248C157.446 55.2591 157.357 55.5885 157.182 55.8735C157.01 56.1462 156.76 56.3604 156.464 56.4879C156.052 56.6454 155.612 56.7181 155.172 56.7017L157.531 59.754H156.716L154.365 56.7017H153.976V59.754H153.321L153.324 53.1829ZM153.98 53.8283V56.064H155.11C155.438 56.079 155.766 56.0369 156.08 55.9396C156.281 55.8651 156.453 55.729 156.573 55.5508C156.689 55.3674 156.75 55.1539 156.747 54.9365C156.749 54.7223 156.686 54.5126 156.569 54.3338C156.457 54.1581 156.293 54.0221 156.099 53.945C155.787 53.8542 155.462 53.8161 155.137 53.8322L153.98 53.8283Z" fill="#fff"/>
<path d="M161.556 53.1829H165.313V53.8283H162.208V55.8891H165.282V56.5345H162.208V59.1202H165.282V59.7617H161.556V53.1829Z" fill="#fff"/>
<path d="M171.879 53.1829L174.937 59.7617H174.227L173.199 57.5999H170.377L169.357 59.7617H168.619L171.724 53.1829H171.879ZM171.794 54.5826L170.672 56.9622H172.915L171.794 54.5826Z" fill="#fff"/>
<path d="M178.69 53.1829H179.346V59.128H181.869V59.7617H178.69V53.1829Z" fill="#fff"/>
<path d="M190.915 53.1829H194.672V53.8283H191.567V55.8891H194.641V56.5345H191.567V59.1202H194.641V59.7617H190.911L190.915 53.1829Z" fill="#fff"/>
<path d="M197.866 58.5411L198.425 58.2028C198.813 58.9299 199.267 59.2915 199.783 59.2915C200 59.2932 200.214 59.2396 200.404 59.136C200.585 59.041 200.737 58.8985 200.843 58.7238C200.942 58.5567 200.994 58.366 200.994 58.1717C200.99 57.9374 200.913 57.7103 200.773 57.5224C200.452 57.1178 200.074 56.7617 199.651 56.4648C199.274 56.2084 198.93 55.9068 198.627 55.5666C198.404 55.2783 198.282 54.9242 198.281 54.5596C198.279 54.2866 198.35 54.018 198.487 53.7819C198.621 53.5451 198.821 53.352 199.061 53.2259C199.31 53.0888 199.589 53.0179 199.872 53.0198C200.177 53.0182 200.476 53.0988 200.738 53.2531C201.077 53.4732 201.367 53.7603 201.592 54.0969L201.056 54.5051C200.888 54.2531 200.675 54.0343 200.427 53.8597C200.257 53.7553 200.061 53.7002 199.861 53.7003C199.62 53.6912 199.386 53.7779 199.209 53.9413C199.127 54.0166 199.062 54.1086 199.018 54.2113C198.975 54.3139 198.954 54.4247 198.957 54.5362C198.957 54.6808 198.988 54.8238 199.046 54.9562C199.13 55.1181 199.24 55.2651 199.372 55.3916C199.457 55.4772 199.741 55.6949 200.218 56.0487C200.668 56.3533 201.062 56.7335 201.382 57.1724C201.583 57.4629 201.694 57.8066 201.7 58.16C201.702 58.394 201.655 58.6258 201.561 58.8402C201.468 59.0546 201.33 59.2468 201.157 59.4043C200.984 59.5759 200.779 59.7111 200.553 59.802C200.327 59.8928 200.085 59.9373 199.841 59.9331C199.457 59.938 199.08 59.8269 198.759 59.6142C198.38 59.3332 198.074 58.9652 197.866 58.5411Z" fill="#fff"/>
<path d="M205.178 53.8283V53.1829H208.771V53.8283H207.308V59.7617H206.637V53.8283H205.178Z" fill="#fff"/>
<path d="M214.395 53.1829L217.442 59.7617H216.743L215.711 57.5999H212.885L211.865 59.7617H211.135L214.24 53.1829H214.395ZM214.31 54.5826L213.172 56.9622H215.412L214.31 54.5826Z" fill="#fff"/>
<path d="M219.813 53.8283V53.1829H223.407V53.8283H221.943V59.7617H221.276V53.8283H219.813Z" fill="#fff"/>
<path d="M227.093 53.1829H230.85V53.8283H227.745V55.8891H230.819V56.5345H227.745V59.1202H230.819V59.7617H227.09L227.093 53.1829Z" fill="#fff"/>
<path d="M254 56.4763C254 57.129 253.806 57.7669 253.444 58.3092C253.081 58.8514 252.566 59.2735 251.964 59.5218C251.361 59.7701 250.699 59.8335 250.06 59.7039C249.422 59.5743 248.836 59.2575 248.378 58.7938C247.919 58.3301 247.609 57.7404 247.485 57.0995C247.362 56.4587 247.431 55.7955 247.685 55.1943C247.939 54.5931 248.365 54.081 248.909 53.7229C249.454 53.3647 250.093 53.1768 250.744 53.183C251.174 53.1845 251.599 53.271 251.995 53.4374C252.392 53.6038 252.752 53.847 253.054 54.1529C253.356 54.4588 253.596 54.8215 253.758 55.2202C253.92 55.6189 254.003 56.0457 254 56.4763ZM248.245 56.4763C248.232 56.8145 248.287 57.1519 248.406 57.4685C248.525 57.7851 248.707 58.0745 248.94 58.3196C249.173 58.5647 249.453 58.7604 249.763 58.8953C250.072 59.0301 250.406 59.1014 250.744 59.1048C252.129 59.1281 253.181 57.9383 253.181 56.4958C253.201 56.1595 253.153 55.8226 253.038 55.5057C252.924 55.1889 252.746 54.8987 252.516 54.653C252.286 54.4073 252.009 54.2112 251.7 54.0767C251.392 53.9423 251.059 53.8722 250.723 53.8709C250.387 53.8696 250.054 53.937 249.745 54.069C249.435 54.2011 249.156 54.395 248.924 54.6389C248.692 54.8828 248.512 55.1715 248.395 55.4874C248.278 55.8034 248.227 56.1399 248.245 56.4763ZM250.216 58.1794H249.475V54.8899C249.881 54.827 250.291 54.7933 250.701 54.7888C251.085 54.7465 251.472 54.8385 251.796 55.0494C251.904 55.1309 251.991 55.2375 252.049 55.3601C252.107 55.4827 252.135 55.6175 252.129 55.7531C252.118 55.9373 252.047 56.1127 251.927 56.2529C251.808 56.3932 251.646 56.4907 251.466 56.5308V56.5696C251.776 56.6707 251.932 56.9312 252.032 57.3706C252.072 57.6472 252.151 57.9168 252.265 58.1716H251.489C251.363 57.9197 251.278 57.6493 251.237 57.3706C251.179 57.0285 250.981 56.869 250.573 56.869H250.22L250.216 58.1794ZM250.216 56.3325H250.569C250.977 56.3325 251.311 56.1925 251.311 55.8542C251.311 55.5159 251.097 55.3487 250.628 55.3487C250.489 55.3464 250.351 55.3608 250.216 55.3915V56.3325Z" fill="#fff"/>
</g>
<defs>
<clipPath id="clip0_43_1152">
<rect width="254" height="80" fill="#fff"/>
</clipPath>
</defs>
</svg>
