<?xml version="1.0" encoding="utf-8"?>
<!-- Generator: Adobe Illustrator 25.4.1, SVG Export Plug-In . SVG Version: 6.00 Build 0)  -->
<svg version="1.1" id="Capa_1" xmlns="http://www.w3.org/2000/svg" xmlns:xlink="http://www.w3.org/1999/xlink" x="0px" y="0px"
	 viewBox="0 0 1080 1080" enable-background="new 0 0 1080 1080" xml:space="preserve">
<g>
	<g>
		<g>
			<g>
				<path fill="#EEEAE0" d="M851.284,524.17H235.264V200.419h616.019V524.17z M240.428,519.006H846.12V205.583H240.428V519.006z"/>
			</g>
			<g>
				<path fill="#EEEAE0" d="M466.913,443.349H318.902v-43.695h148.011V443.349z M324.066,438.185h137.683v-33.367H324.066V438.185z"
					/>
			</g>
			<g>
				<path fill="#EEEAE0" d="M851.047,524.17H540.692V401.767h310.355V524.17z M545.856,519.006h300.027V406.931H545.856V519.006z"/>
			</g>
			<g>
				<path fill="#EEEAE0" d="M851.284,340.914h-533.32v-47.454h533.32V340.914z M323.128,335.75H846.12v-37.126H323.128V335.75z"/>
			</g>
			<g>
				<path fill="#EEEAE0" d="M234.084,279.826c-60.496,0-109.715-49.217-109.715-109.715S173.589,60.393,234.084,60.393
					c60.501,0,109.72,49.219,109.72,109.717S294.585,279.826,234.084,279.826z M234.084,65.557
					c-57.651,0-104.551,46.902-104.551,104.553c0,57.649,46.9,104.551,104.551,104.551S338.64,227.76,338.64,170.111
					C338.64,112.46,291.736,65.557,234.084,65.557z"/>
			</g>
			<g>
				<rect x="140.809" y="976.914" fill="#EEEAE0" width="585.721" height="5.164"/>
			</g>
			<g>
				<polygon fill="#EEEAE0" points="797.127,951.062 790.319,951.062 790.319,1004.967 827.138,1004.967 827.138,999.576 
					797.127,999.576 				"/>
			</g>
			<g>
				<rect x="836.7" y="948.092" fill="#EEEAE0" width="6.208" height="6.591"/>
			</g>
			<g>
				<rect x="836.7" y="963.937" fill="#EEEAE0" width="6.208" height="41.03"/>
			</g>
			<g>
				<path fill="#EEEAE0" d="M871.708,997.917l-0.141,0.454h-1.387l-0.136-0.464c-0.282-0.958-0.903-2.91-1.871-5.85
					c-0.968-2.955-1.826-5.441-2.547-7.378l-7.771-20.742h-6.536l15.951,41.03h6.616l15.956-41.03h-6.112l-7.685,20.737
					c-0.787,2.168-1.644,4.715-2.547,7.58C872.585,995.118,871.99,997.004,871.708,997.917z"/>
			</g>
			<g>
				<rect x="898.249" y="963.937" fill="#EEEAE0" width="6.208" height="41.03"/>
			</g>
			<g>
				<rect x="898.249" y="948.092" fill="#EEEAE0" width="6.208" height="6.591"/>
			</g>
			<g>
				<path fill="#EEEAE0" d="M938.779,962.974c-6.521,0-11.422,2.158-14.569,6.415l-0.192,0.262h-1.483l-0.852-5.714h-4.508v41.03
					h6.208v-24.378c0-2.617,0.575-4.947,1.705-6.919c1.13-1.967,2.678-3.495,4.599-4.549c1.911-1.044,4.024-1.568,6.279-1.568
					c3.157,0,5.618,0.711,7.317,2.118c1.74,1.442,2.622,3.974,2.622,7.539v27.757h6.208v-28.241c0-4.831-1.15-8.371-3.419-10.515
					C946.414,964.063,943.076,962.974,938.779,962.974z"/>
			</g>
			<g>
				<path fill="#EEEAE0" d="M1000.642,1001.205c-1.906-1.881-4.559-2.834-7.897-2.834h-17.988c-1.674,0-3.001-0.368-3.939-1.099
					c-0.983-0.772-1.483-1.785-1.483-3.001c0-1.225,0.499-2.239,1.483-3.006c0.933-0.731,2.259-1.104,3.939-1.104h7.161
					c5.457,0,9.814-1.215,12.945-3.611c3.132-2.385,4.65-5.648,4.65-9.98c0-3.807-1.488-6.909-4.539-9.486l-0.998-0.842l1.271-0.282
					c2.521-0.555,4.539-1.705,6.001-3.409c1.316-1.538,2.047-3.369,2.168-5.451h-5.976c-0.792,3.172-3.056,5.613-6.737,7.267
					l-0.242,0.106l-0.247-0.091c-2.466-0.933-5.255-1.407-8.296-1.407c-5.456,0-9.798,1.215-12.91,3.606
					c-3.096,2.39-4.604,5.658-4.604,9.99c0,2.128,0.514,4.105,1.533,5.87c1.024,1.78,2.451,3.303,4.241,4.539l1.21,0.832
					l-1.432,0.328c-1.79,0.408-3.449,1.135-4.942,2.153c-1.387,0.953-2.063,2.33-2.063,4.216c0,1.286,0.398,2.441,1.18,3.419
					c0.817,1.019,1.881,1.871,3.157,2.521l1.372,0.701l-1.462,0.484c-4.579,1.528-6.803,4.276-6.803,8.402
					c0,3.444,1.089,5.83,3.333,7.302c2.3,1.508,5.063,2.269,8.215,2.269h18.074c3.112,0,5.714-0.57,7.741-1.689
					c2.007-1.109,3.485-2.562,4.382-4.312c0.918-1.785,1.382-3.661,1.382-5.583
					C1003.521,1005.37,1002.553,1003.081,1000.642,1001.205z M970.611,976.57c0-2.975,0.993-5.32,2.96-6.969
					c1.931-1.624,4.766-2.446,8.427-2.446c3.661,0,6.5,0.822,8.432,2.446c1.967,1.649,2.96,3.994,2.96,6.969
					c0,2.97-0.993,5.315-2.96,6.969c-1.931,1.624-4.771,2.446-8.432,2.446c-3.661,0-6.495-0.822-8.427-2.446
					C971.604,981.885,970.611,979.54,970.611,976.57z M995.266,1013.6c-1.367,1.054-3.076,1.589-5.083,1.589h-17.56
					c-1.81,0-3.283-0.55-4.377-1.639c-1.089-1.089-1.639-2.542-1.639-4.322c0-1.775,0.55-3.217,1.639-4.281
					c1.099-1.059,2.572-1.594,4.377-1.594h18.669c1.805,0,3.288,0.535,4.408,1.583c1.125,1.069,1.694,2.511,1.694,4.292
					C997.394,1011.044,996.678,1012.516,995.266,1013.6z"/>
			</g>
		</g>
		<g>
			<path fill="#EEEAE0" d="M95.687,690.977c0,1.162,0.29,2.614,0.871,4.356l51.111,137.652l51.111-139.104
				c0.191-0.386,0.386-0.966,0.581-1.742c0.19-0.771,0.29-1.352,0.29-1.743c0-2.323-0.921-4.016-2.759-5.082
				c-1.842-1.062-3.535-1.597-5.082-1.597v-2.904h31.654v2.904c-2.904,0-5.568,0.776-7.987,2.323
				c-2.423,1.552-4.311,4.165-5.663,7.841l-66.503,182.084L75.358,694.752c-1.161-2.904-2.859-5.418-5.082-7.55
				c-2.228-2.128-4.987-3.29-8.276-3.485v-2.904h41.237v2.904c-1.742,0-3.439,0.631-5.082,1.888
				C96.508,686.866,95.687,688.654,95.687,690.977z"/>
			<path fill="#EEEAE0" d="M296.933,680.813h41.238v2.904h-1.452c-1.357,0-2.614,0.535-3.776,1.597
				c-1.161,1.066-2.132,2.323-2.904,3.775c-0.776,1.452-1.407,3.099-1.888,4.937c-0.485,1.842-0.726,3.439-0.726,4.792v154.785
				c0,1.552,0.19,3.244,0.581,5.082c0.386,1.842,1.016,3.535,1.887,5.082c0.871,1.552,1.838,2.904,2.904,4.066
				c1.062,1.162,2.369,1.743,3.921,1.743h1.452v2.904h-41.238v-2.904h1.452c1.547,0,2.904-0.531,4.066-1.597
				c1.161-1.062,2.178-2.419,3.049-4.066c0.871-1.643,1.497-3.385,1.887-5.227c0.386-1.838,0.581-3.53,0.581-5.082V698.818
				c0-1.352-0.195-2.904-0.581-4.647c-0.39-1.742-1.016-3.385-1.887-4.937c-0.872-1.547-1.888-2.854-3.049-3.921
				c-1.162-1.062-2.519-1.597-4.066-1.597h-1.452V680.813z"/>
			<path fill="#EEEAE0" d="M458.687,869.576h1.452v2.904h-40.947v-2.904h1.452c1.352,0,2.614-0.581,3.775-1.743
				c1.162-1.162,2.178-2.514,3.05-4.066c0.871-1.547,1.497-3.24,1.887-5.082c0.386-1.838,0.581-3.53,0.581-5.082V698.818
				c0-1.352-0.195-2.904-0.581-4.647c-0.39-1.742-1.016-3.385-1.887-4.937c-0.871-1.547-1.888-2.854-3.05-3.921
				c-1.161-1.062-2.423-1.597-3.775-1.597h-1.452v-2.904h50.53c19.357,0,34.313,3.775,44.868,11.326
				c10.55,7.551,15.827,18.686,15.827,33.397c0,7.36-1.212,13.794-3.63,19.312c-2.423,5.517-5.663,10.264-9.729,14.23
				c-4.066,3.97-8.857,7.165-14.375,9.583c-5.517,2.423-11.376,4.211-17.569,5.372l20.909,31.944
				c5.032,7.746,10.164,15.346,15.392,22.797c5.228,7.455,10.354,15.151,15.392,23.087c1.352,1.938,2.854,3.97,4.501,6.099
				c1.643,2.133,3.385,4.066,5.228,5.808c1.838,1.743,3.775,3.149,5.808,4.211c2.033,1.066,4.111,1.597,6.244,1.597v2.904h-12.488
				c-7.745,0-14.084-1.888-19.021-5.663c-4.937-3.775-9.052-8.177-12.342-13.213c-8.712-12.778-17.379-25.746-25.991-38.914
				c-8.617-13.163-17.184-26.136-25.701-38.914c-2.132-0.191-4.406-0.436-6.824-0.726c-2.423-0.29-4.696-0.626-6.824-1.016v79.571
				c0,1.552,0.19,3.244,0.58,5.082c0.386,1.842,1.016,3.535,1.888,5.082c0.871,1.552,1.837,2.904,2.904,4.066
				C455.829,868.995,457.135,869.576,458.687,869.576z M449.394,690.687v73.763h1.452c1.547,0.195,4.016,0.341,7.405,0.436
				c3.385,0.1,7.596,0.145,12.633,0.145c4.066,0,8.371-0.626,12.923-1.888c4.547-1.257,8.807-3.385,12.778-6.389
				c3.966-2.999,7.26-6.919,9.874-11.761c2.613-4.837,3.92-10.935,3.92-18.295c0-7.356-1.406-13.359-4.211-18.005
				c-2.809-4.646-6.679-8.322-11.616-11.035c-4.937-2.709-10.89-4.547-17.86-5.518c-6.97-0.966-14.62-1.452-22.942-1.452H449.394z"
				/>
			<path fill="#EEEAE0" d="M628.863,869.576h1.452c1.548,0,2.904-0.531,4.066-1.597c1.162-1.062,2.178-2.368,3.049-3.92
				c0.872-1.547,1.548-3.194,2.033-4.937c0.481-1.743,0.727-3.385,0.727-4.937V698.818c0-1.352-0.246-2.904-0.727-4.647
				c-0.485-1.742-1.161-3.385-2.033-4.937c-0.871-1.547-1.887-2.854-3.049-3.921c-1.161-1.062-2.518-1.597-4.066-1.597h-1.452
				v-2.904h111.806v27.007h-2.904c-0.391-4.451-2.133-8.372-5.228-11.761c-3.099-3.385-7.941-5.082-14.52-5.082h-58.371v73.472
				h48.208c4.451,0,8.177-1.352,11.18-4.066c3-2.709,4.502-5.903,4.502-9.583h2.904v36.301h-2.904c0-3.485-1.453-6.484-4.356-9.003
				c-2.904-2.514-6.679-3.775-11.326-3.775h-48.208v87.993h63.599c3.675,0,6.87-0.871,9.583-2.614
				c2.709-1.742,4.983-3.821,6.824-6.244c1.838-2.419,3.195-5.032,4.066-7.841c0.871-2.804,1.306-5.177,1.306-7.115h2.904v33.977
				H628.863V869.576z"/>
			<path fill="#EEEAE0" d="M920.424,677.909c15.101,0,28.65,2.664,40.657,7.986c12.002,5.327,22.216,12.487,30.638,21.49
				c8.422,9.002,14.906,19.457,19.457,31.363c4.547,11.907,6.824,24.349,6.824,37.317c0,14.52-2.663,27.879-7.986,40.076
				c-5.328,12.197-12.633,22.652-21.926,31.363c-9.293,8.712-20.088,15.537-32.38,20.474c-12.297,4.937-25.411,7.405-39.35,7.405
				c-14.911,0-28.314-2.714-40.221-8.131c-11.906-5.418-21.975-12.583-30.202-21.49c-8.231-8.903-14.57-19.167-19.021-30.783
				c-4.456-11.616-6.679-23.713-6.679-36.301c0-12.388,2.223-24.634,6.679-36.736c4.451-12.097,10.985-22.892,19.602-32.38
				c8.612-9.484,19.117-17.134,31.509-22.942C890.413,680.813,904.548,677.909,920.424,677.909z M920.279,865.22
				c12.995-0.581,24.389-3.53,34.186-8.857c9.792-5.322,17.987-12.097,24.585-20.328c6.593-8.226,11.489-17.279,14.693-27.153
				c3.199-9.874,4.8-19.648,4.8-29.331c0-10.645-1.942-21.39-5.822-32.235c-3.879-10.84-9.406-20.664-16.58-29.476
				c-7.178-8.807-15.759-15.972-25.746-21.49c-9.992-5.518-21.19-8.276-33.605-8.276c-12.025,0-22.793,2.663-32.294,7.986
				c-9.506,5.327-17.606,12.152-24.294,20.474c-6.693,8.326-11.783,17.619-15.273,27.879c-3.494,10.264-5.237,20.328-5.237,30.202
				c0,10.649,2.033,21.345,6.107,32.09c4.075,10.745,9.697,20.473,16.875,29.185c7.179,8.712,15.664,15.782,25.456,21.199
				C897.923,862.511,908.64,865.22,920.279,865.22z"/>
		</g>
	</g>
	<rect x="641.314" y="658.935" fill="#EEEAE0" width="87.098" height="5.451"/>
</g>
<g>
</g>
<g>
</g>
<g>
</g>
<g>
</g>
<g>
</g>
<g>
</g>
<g>
</g>
<g>
</g>
<g>
</g>
<g>
</g>
<g>
</g>
<g>
</g>
<g>
</g>
<g>
</g>
<g>
</g>
</svg>
