<?xml version="1.0" encoding="UTF-8"?>
<svg id="Capa_1" data-name="Capa 1" xmlns="http://www.w3.org/2000/svg" viewBox="0 0 1920 1080">
  <defs>
    <style>
      .cls-1 {
        letter-spacing: 0em;
      }

      .cls-2 {
        fill: #fff;
        font-family: MontserratRoman-Medium, Montserrat;
        font-size: 20.92px;
        font-variation-settings: 'wght' 500;
        font-weight: 500;
      }

      .cls-3 {
        fill: #5b5942;
        opacity: .5;
        stroke: #fff;
        stroke-miterlimit: 10;
      }

      .cls-4 {
        letter-spacing: 0em;
      }

      .cls-5 {
        letter-spacing: 0em;
      }

      .cls-6 {
        letter-spacing: 0em;
      }

      .cls-7 {
        letter-spacing: 0em;
      }
    </style>
  </defs>
  <rect class="cls-3" x="693.88" y="603.44" width="150.83" height="44.1"/>
  <rect class="cls-3" x="693.88" y="556.71" width="150.83" height="46.73"/>
  <rect class="cls-3" x="543.05" y="603.44" width="150.83" height="44.1"/>
  <rect class="cls-3" x="543.05" y="556.71" width="150.83" height="46.73"/>
  <rect class="cls-3" x="392.22" y="603.44" width="150.83" height="44.1"/>
  <rect class="cls-3" x="392.22" y="556.71" width="150.83" height="46.73"/>
  <rect class="cls-3" x="241.39" y="603.44" width="150.83" height="44.1"/>
  <rect class="cls-3" x="241.39" y="556.71" width="150.83" height="46.73"/>
  <rect class="cls-3" x="24.2" y="603.44" width="217.2" height="44.1"/>
  <rect class="cls-3" x="543.05" y="647.54" width="150.83" height="58.68"/>
  <rect class="cls-3" x="392.22" y="647.54" width="150.83" height="58.68"/>
  <rect class="cls-3" x="241.39" y="647.54" width="150.83" height="58.68"/>
  <rect class="cls-3" x="24.2" y="647.54" width="217.2" height="58.68"/>
  <rect class="cls-3" x="24.2" y="556.71" width="217.2" height="46.73"/>
  <rect class="cls-3" x="844.71" y="603.44" width="150.83" height="44.1"/>
  <rect class="cls-3" x="844.71" y="556.71" width="150.83" height="46.73"/>
  <rect class="cls-3" x="995.54" y="603.44" width="150.83" height="44.1"/>
  <rect class="cls-3" x="995.54" y="556.71" width="150.83" height="46.73"/>
  <rect class="cls-3" x="1146.37" y="603.44" width="104.76" height="44.1"/>
  <rect class="cls-3" x="1146.37" y="556.71" width="104.76" height="46.73"/>
  <rect class="cls-3" x="1251.12" y="603.44" width="119.8" height="44.1"/>
  <rect class="cls-3" x="1251.12" y="556.71" width="119.8" height="46.73"/>
  <rect class="cls-3" x="1370.93" y="603.44" width="104.76" height="44.1"/>
  <rect class="cls-3" x="1370.93" y="556.71" width="104.76" height="46.73"/>
  <rect class="cls-3" x="1475.68" y="603.44" width="124.12" height="44.1"/>
  <rect class="cls-3" x="1475.68" y="556.71" width="124.12" height="46.73"/>
  <rect class="cls-3" x="1599.8" y="603.44" width="153.37" height="44.1"/>
  <rect class="cls-3" x="1599.8" y="556.71" width="153.37" height="46.73"/>
  <rect class="cls-3" x="1753.17" y="603.44" width="153.37" height="44.1"/>
  <rect class="cls-3" x="844.71" y="647.54" width="150.83" height="58.68"/>
  <rect class="cls-3" x="995.54" y="647.54" width="150.83" height="58.68"/>
  <rect class="cls-3" x="1146.37" y="647.54" width="224.56" height="58.68"/>
  <rect class="cls-3" x="1370.93" y="647.54" width="228.78" height="58.68"/>
  <rect class="cls-3" x="1599.8" y="647.54" width="153.37" height="58.68"/>
  <rect class="cls-3" x="1753.17" y="647.54" width="153.37" height="58.68"/>
  <rect class="cls-3" x="1753.17" y="556.71" width="153.37" height="46.73"/>
  <text class="cls-2" transform="translate(118.08 683.57)"><tspan x="0" y="0">110</tspan></text>
  <text class="cls-2" transform="translate(116.94 632.84)"><tspan x="0" y="0">213</tspan></text>
  <text class="cls-2" transform="translate(116.96 587.18)"><tspan x="0" y="0">313</tspan></text>
  <text class="cls-2" transform="translate(299.39 683.57)"><tspan x="0" y="0">109</tspan></text>
  <text class="cls-2" transform="translate(300.81 632.84)"><tspan x="0" y="0">212</tspan></text>
  <text class="cls-2" transform="translate(300.84 587.18)"><tspan x="0" y="0">312</tspan></text>
  <text class="cls-2" transform="translate(450.05 683.57)"><tspan x="0" y="0">108</tspan></text>
  <text class="cls-2" transform="translate(453.89 632.84)"><tspan x="0" y="0">211</tspan></text>
  <text class="cls-2" transform="translate(453.91 587.18)"><tspan x="0" y="0">311</tspan></text>
  <text class="cls-2" transform="translate(601.43 683.57)"><tspan x="0" y="0">1</tspan><tspan class="cls-6" x="7.74" y="0">0</tspan><tspan x="21.55" y="0">7</tspan></text>
  <text class="cls-2" transform="translate(601.61 632.84)"><tspan x="0" y="0">210</tspan></text>
  <text class="cls-2" transform="translate(601.63 587.18)"><tspan x="0" y="0">310</tspan></text>
  <text class="cls-2" transform="translate(749.87 632.84)"><tspan class="cls-1" x="0" y="0">2</tspan><tspan class="cls-4" x="11.99" y="0">09</tspan></text>
  <text class="cls-2" transform="translate(749.88 587.18)"><tspan x="0" y="0">309</tspan></text>
  <text class="cls-2" transform="translate(902.82 683.57)"><tspan x="0" y="0">106</tspan></text>
  <text class="cls-2" transform="translate(900.41 632.84)"><tspan class="cls-1" x="0" y="0">2</tspan><tspan class="cls-4" x="11.99" y="0">08</tspan></text>
  <text class="cls-2" transform="translate(900.43 587.18)"><tspan x="0" y="0">308</tspan></text>
  <text class="cls-2" transform="translate(1054.1 683.57)"><tspan x="0" y="0">105</tspan></text>
  <text class="cls-2" transform="translate(1051.8 632.84)"><tspan class="cls-1" x="0" y="0">2</tspan><tspan class="cls-6" x="11.99" y="0">0</tspan><tspan x="25.79" y="0">7</tspan></text>
  <text class="cls-2" transform="translate(1051.81 587.18)"><tspan x="0" y="0">3</tspan><tspan class="cls-6" x="11.97" y="0">0</tspan><tspan x="25.77" y="0">7</tspan></text>
  <text class="cls-2" transform="translate(1233.28 683.57)"><tspan x="0" y="0">104</tspan></text>
  <text class="cls-2" transform="translate(1179.32 632.84)"><tspan class="cls-1" x="0" y="0">2</tspan><tspan class="cls-4" x="11.99" y="0">06</tspan></text>
  <text class="cls-2" transform="translate(1179.33 587.18)"><tspan x="0" y="0">306</tspan></text>
  <text class="cls-2" transform="translate(1292.05 632.84)"><tspan class="cls-1" x="0" y="0">2</tspan><tspan class="cls-4" x="11.99" y="0">05</tspan></text>
  <text class="cls-2" transform="translate(1292.06 587.18)"><tspan x="0" y="0">305</tspan></text>
  <text class="cls-2" transform="translate(1458.96 683.57)"><tspan x="0" y="0">1</tspan><tspan class="cls-7" x="7.74" y="0">0</tspan><tspan x="21.49" y="0">3</tspan></text>
  <text class="cls-2" transform="translate(1403.34 632.84)"><tspan class="cls-1" x="0" y="0">2</tspan><tspan class="cls-4" x="11.99" y="0">04</tspan></text>
  <text class="cls-2" transform="translate(1403.35 587.18)"><tspan x="0" y="0">304</tspan></text>
  <text class="cls-2" transform="translate(1518.9 632.84)"><tspan class="cls-1" x="0" y="0">2</tspan><tspan class="cls-5" x="11.99" y="0">0</tspan><tspan x="25.73" y="0">3</tspan></text>
  <text class="cls-2" transform="translate(1518.91 587.18)"><tspan x="0" y="0">3</tspan><tspan class="cls-5" x="11.97" y="0">0</tspan><tspan x="25.71" y="0">3</tspan></text>
  <text class="cls-2" transform="translate(1659.64 683.57)"><tspan x="0" y="0">102</tspan></text>
  <text class="cls-2" transform="translate(1657.51 632.84)"><tspan class="cls-1" x="0" y="0">2</tspan><tspan class="cls-4" x="11.99" y="0">02</tspan></text>
  <text class="cls-2" transform="translate(1657.52 587.18)"><tspan x="0" y="0">302</tspan></text>
  <text class="cls-2" transform="translate(1815.14 683.57)"><tspan x="0" y="0">101</tspan></text>
  <text class="cls-2" transform="translate(1813.01 632.84)"><tspan class="cls-1" x="0" y="0">2</tspan><tspan class="cls-4" x="11.99" y="0">01</tspan></text>
  <text class="cls-2" transform="translate(1813.02 587.18)"><tspan x="0" y="0">301</tspan></text>
</svg>