<svg width="150" height="100%" class="h-8" viewBox="0 0 731 283" fill="none" xmlns="http://www.w3.org/2000/svg">
<path d="M502.337 249.461H42.8276V253.512H502.337V249.461Z" fill="#5C5945"/>
<path d="M557.721 229.179H552.38V271.469H581.266V267.239H557.721V229.179Z" fill="#5C5945"/>
<path d="M593.638 226.849H588.768V232.02H593.638V226.849Z" fill="#5C5945"/>
<path d="M593.638 239.28H588.768V271.469H593.638V239.28Z" fill="#5C5945"/>
<path d="M616.232 265.938L616.121 266.294H615.033L614.926 265.93C614.705 265.179 614.218 263.647 613.459 261.341C612.699 259.022 612.026 257.072 611.46 255.553L605.364 239.28H600.236L612.75 271.469H617.941L630.458 239.28H625.663L619.634 255.549C619.017 257.249 618.345 259.248 617.636 261.495C616.92 263.742 616.453 265.222 616.232 265.938Z" fill="#5C5945"/>
<path d="M641.924 239.28H637.054V271.469H641.924V239.28Z" fill="#5C5945"/>
<path d="M641.924 226.849H637.054V232.02H641.924V226.849Z" fill="#5C5945"/>
<path d="M668.85 238.525C663.734 238.525 659.889 240.218 657.42 243.557L657.27 243.763H656.106L655.438 239.28H651.901V271.469H656.772V252.344C656.772 250.291 657.223 248.463 658.109 246.916C658.996 245.373 660.21 244.174 661.717 243.347C663.217 242.528 664.874 242.117 666.643 242.117C669.12 242.117 671.051 242.675 672.384 243.779C673.749 244.91 674.441 246.896 674.441 249.693V271.469H679.311V249.313C679.311 245.523 678.409 242.746 676.629 241.064C674.84 239.379 672.221 238.525 668.85 238.525Z" fill="#5C5945"/>
<path d="M717.383 268.518C715.888 267.042 713.806 266.294 711.188 266.294H697.076C695.763 266.294 694.721 266.005 693.986 265.432C693.214 264.826 692.822 264.032 692.822 263.078C692.822 262.117 693.214 261.321 693.986 260.719C694.718 260.146 695.758 259.853 697.076 259.853H702.694C706.975 259.853 710.393 258.9 712.849 257.02C715.306 255.149 716.497 252.589 716.497 249.191C716.497 246.204 715.33 243.771 712.936 241.749L712.154 241.088L713.151 240.867C715.128 240.432 716.712 239.53 717.859 238.193C718.891 236.986 719.464 235.55 719.559 233.916H714.871C714.25 236.405 712.474 238.32 709.586 239.617L709.396 239.701L709.202 239.629C707.268 238.897 705.08 238.525 702.694 238.525C698.413 238.525 695.007 239.479 692.566 241.354C690.137 243.229 688.954 245.793 688.954 249.192C688.954 250.861 689.357 252.412 690.156 253.797C690.96 255.193 692.079 256.388 693.484 257.358L694.433 258.01L693.309 258.268C691.905 258.588 690.604 259.158 689.432 259.957C688.344 260.704 687.814 261.785 687.814 263.264C687.814 264.273 688.126 265.179 688.74 265.947C689.38 266.746 690.215 267.414 691.216 267.924L692.293 268.474L691.146 268.854C687.553 270.053 685.809 272.209 685.809 275.446C685.809 278.147 686.663 280.019 688.423 281.174C690.228 282.357 692.395 282.954 694.868 282.954H709.048C711.489 282.954 713.53 282.507 715.121 281.629C716.695 280.759 717.855 279.619 718.558 278.246C719.279 276.846 719.643 275.374 719.643 273.866C719.642 271.785 718.882 269.989 717.383 268.518ZM693.823 249.191C693.823 246.857 694.602 245.017 696.145 243.724C697.66 242.45 699.884 241.805 702.757 241.805C705.629 241.805 707.856 242.45 709.372 243.724C710.915 245.017 711.694 246.857 711.694 249.191C711.694 251.521 710.915 253.361 709.372 254.658C707.857 255.932 705.629 256.577 702.757 256.577C699.884 256.577 697.661 255.932 696.145 254.658C694.602 253.361 693.823 251.521 693.823 249.191ZM713.166 278.242C712.093 279.068 710.752 279.488 709.178 279.488H695.402C693.982 279.488 692.826 279.057 691.968 278.202C691.113 277.348 690.682 276.208 690.682 274.812C690.682 273.419 691.113 272.288 691.968 271.453C692.83 270.622 693.986 270.203 695.402 270.203H710.048C711.464 270.203 712.627 270.622 713.506 271.445C714.389 272.283 714.835 273.414 714.835 274.812C714.835 276.236 714.273 277.391 713.166 278.242Z" fill="#5C5945"/>
<path d="M7.42809 25.1375C7.42809 26.0492 7.65561 27.1883 8.11141 28.5549L48.209 136.546L88.3065 27.4158C88.4564 27.113 88.6093 26.6579 88.7623 26.0492C88.9114 25.4443 88.9898 24.9885 88.9898 24.6817C88.9898 22.8593 88.2673 21.5311 86.8254 20.6948C85.3803 19.8617 84.0521 19.4419 82.8384 19.4419V17.1637H107.672V19.4419C105.393 19.4419 103.303 20.0507 101.406 21.2644C99.5048 22.4819 98.0236 24.5319 96.9629 27.4158L44.79 170.264L-8.52039 28.0991C-9.43122 25.8209 -10.7633 23.8486 -12.5073 22.176C-14.2552 20.5066 -16.4197 19.5949 -19 19.4419V17.1637H13.3512V19.4419C11.9846 19.4419 10.6533 19.937 9.36429 20.9231C8.07219 21.9124 7.42809 23.3151 7.42809 25.1375Z" fill="#5C5945"/>
<path d="M165.31 17.1637H197.662V19.4419H196.523C195.458 19.4419 194.472 19.8617 193.56 20.6948C192.65 21.5311 191.888 22.5173 191.282 23.6564C190.673 24.7955 190.178 26.0876 189.801 27.5296C189.42 28.9746 189.231 30.2275 189.231 31.289V152.721C189.231 153.938 189.38 155.266 189.687 156.708C189.99 158.153 190.484 159.481 191.168 160.695C191.851 161.912 192.61 162.973 193.446 163.884C194.279 164.796 195.304 165.252 196.522 165.252H197.661V167.53H165.309V165.252H166.448C167.662 165.252 168.726 164.835 169.638 163.999C170.549 163.166 171.347 162.101 172.03 160.809C172.713 159.52 173.204 158.154 173.51 156.708C173.813 155.266 173.966 153.939 173.966 152.722V31.289C173.966 30.2283 173.813 29.0107 173.51 27.6433C173.204 26.2767 172.713 24.9877 172.03 23.7701C171.346 22.5565 170.549 21.5311 169.638 20.694C168.726 19.8609 167.662 19.4412 166.448 19.4412H165.309V17.1637H165.31Z" fill="#5C5945"/>
<path d="M292.208 165.252H293.347V167.53H261.224V165.252H262.363C263.423 165.252 264.414 164.796 265.324 163.885C266.236 162.973 267.033 161.912 267.717 160.695C268.4 159.481 268.892 158.153 269.197 156.708C269.5 155.266 269.653 153.938 269.653 152.721V31.289C269.653 30.2283 269.5 29.0108 269.197 27.6434C268.892 26.2767 268.4 24.9878 267.717 23.7702C267.034 22.5565 266.236 21.5311 265.324 20.6941C264.414 19.8609 263.423 19.4412 262.363 19.4412H261.224V17.163H300.865C316.051 17.163 327.785 20.1245 336.065 26.0484C344.342 31.9723 348.482 40.7079 348.482 52.249C348.482 58.023 347.531 63.0706 345.634 67.3996C343.733 71.7278 341.191 75.452 338.001 78.5634C334.812 81.6779 331.053 84.1844 326.724 86.0814C322.396 87.9823 317.799 89.385 312.941 90.2958L329.344 115.357C333.292 121.433 337.318 127.396 341.42 133.241C345.521 139.09 349.542 145.127 353.495 151.353C354.556 152.874 355.734 154.468 357.026 156.138C358.315 157.812 359.682 159.328 361.127 160.695C362.569 162.062 364.089 163.165 365.684 163.998C367.279 164.835 368.909 165.251 370.582 165.251V167.529H360.785C354.709 167.529 349.736 166.048 345.863 163.087C341.99 160.125 338.762 156.672 336.181 152.721C329.346 142.696 322.546 132.523 315.79 122.192C309.03 111.865 302.309 101.688 295.627 91.6633C293.955 91.5134 292.171 91.3212 290.274 91.0937C288.373 90.8662 286.59 90.6026 284.92 90.2966V152.722C284.92 153.939 285.069 155.267 285.375 156.708C285.678 158.154 286.172 159.482 286.856 160.695C287.54 161.913 288.297 162.974 289.134 163.885C289.966 164.796 290.991 165.252 292.208 165.252ZM284.918 24.9101V82.7786H286.057C287.27 82.9316 289.207 83.0461 291.866 83.1206C294.522 83.1991 297.825 83.2344 301.777 83.2344C304.967 83.2344 308.344 82.7433 311.915 81.7532C315.483 80.7671 318.825 79.0976 321.94 76.7409C325.051 74.3882 327.636 71.3128 329.686 67.5142C331.736 63.7194 332.762 58.9355 332.762 53.1614C332.762 47.3905 331.659 42.681 329.458 39.0361C327.254 35.3913 324.218 32.5074 320.345 30.379C316.472 28.2537 311.802 26.8118 306.333 26.05C300.865 25.2922 294.864 24.9109 288.335 24.9109L284.918 24.9101Z" fill="#5C5945"/>
<path d="M425.715 165.252H426.854C428.068 165.252 429.132 164.835 430.044 163.999C430.955 163.166 431.753 162.141 432.436 160.924C433.12 159.71 433.65 158.418 434.031 157.051C434.408 155.683 434.601 154.395 434.601 153.177V31.289C434.601 30.2283 434.408 29.0108 434.031 27.6434C433.65 26.2767 433.12 24.9878 432.436 23.7702C431.753 22.5565 430.955 21.5311 430.044 20.6941C429.133 19.8609 428.068 19.4412 426.854 19.4412H425.715V17.163H513.429V38.3504H511.151C510.844 34.8585 509.477 31.7825 507.049 29.1237C504.618 26.4681 500.819 25.1368 495.658 25.1368H449.865V82.777H487.685C491.177 82.777 494.1 81.7163 496.456 79.5871C498.809 77.4619 499.988 74.9561 499.988 72.0691H502.266V100.548H499.988C499.988 97.8138 498.848 95.4611 496.57 93.4849C494.292 91.5126 491.33 90.5233 487.685 90.5233H449.865V159.556H499.759C502.642 159.556 505.149 158.872 507.277 157.505C509.403 156.138 511.187 154.507 512.631 152.606C514.073 150.708 515.137 148.659 515.821 146.455C516.504 144.255 516.845 142.393 516.845 140.873H519.124V167.529H425.715V165.252Z" fill="#5C5945"/>
<path d="M654.45 14.8856C666.297 14.8856 676.926 16.9756 686.346 21.1508C695.762 25.3299 703.775 30.9471 710.382 38.0101C716.989 45.0724 722.076 53.2745 725.647 62.615C729.214 71.9562 731 81.7172 731 91.8909C731 103.282 728.911 113.762 724.735 123.331C720.555 132.9 714.824 141.102 707.534 147.936C700.243 154.771 691.774 160.125 682.131 163.998C672.484 167.872 662.195 169.808 651.26 169.808C639.562 169.808 629.047 167.679 619.706 163.429C610.365 159.178 602.466 153.557 596.012 146.57C589.554 139.585 584.581 131.533 581.089 122.42C577.594 113.307 575.85 103.816 575.85 93.9408C575.85 84.2222 577.594 74.615 581.089 65.1207C584.581 55.6304 589.707 47.1615 596.468 39.718C603.224 32.2776 611.465 26.2761 621.187 21.7196C630.906 17.1639 641.995 14.8856 654.45 14.8856ZM654.336 161.835C664.531 161.379 673.47 159.065 681.156 154.886C688.838 150.711 695.267 145.396 700.443 138.938C705.615 132.485 709.456 125.383 711.97 117.636C714.48 109.89 715.736 102.222 715.736 94.6257C715.736 86.2745 714.212 77.8448 711.168 69.3367C708.125 60.8325 703.789 53.1255 698.161 46.2123C692.53 39.303 685.798 33.6819 677.963 29.3529C670.124 25.0239 661.339 22.8602 651.599 22.8602C642.165 22.8602 633.717 24.9494 626.264 29.1254C618.806 33.3046 612.451 38.6589 607.205 45.1877C601.954 51.7196 597.961 59.0101 595.223 67.0593C592.481 75.1116 591.114 83.007 591.114 90.7533C591.114 99.1077 592.709 107.499 595.905 115.929C599.102 124.358 603.513 131.99 609.144 138.825C614.776 145.659 621.433 151.206 629.115 155.456C636.797 159.709 645.205 161.835 654.336 161.835Z" fill="#5C5945"/>
<path d="M503.813 0H435.483V4.2764H503.813V0Z" fill="#5C5945"/>
</svg>
